# xmcd
#
# Track frame offsets:
#	150
#	25468
#	46302
#	68453
#	89721
#	111968
#	127040
#	155797
#	201131
#	225630
#
# Disc length: 3166 seconds
# Revision: 1
# Processed by: cddbd v1.5.2PL0 Copyright (c) Steve Scherf et al.
# Submitted via: dBpowerAMP V12.0
#
DISCID=8b0c5c0a
DTITLE=B.B. King - Completely well
DYEAR=2012
DGENRE=Blues
TTITLE0=So excited
TTITLE1=No good
TTITLE2=You're losin' me
TTITLE3=What happened
TTITLE4=Confessin' the blues
TTITLE5=Key to my kingdom
TTITLE6=Cryin' won't help you now
TTITLE7=You're mean
TTITLE8=The thrill is gone
TTITLE9=Fools get wise
EXTD=
EXTT0=
EXTT1=
EXTT2=
EXTT3=
EXTT4=
EXTT5=
EXTT6=
EXTT7=
EXTT8=
EXTT9=
PLAYORDER=
